<?xml version="1.0" encoding="UTF-8"?>
<svg version="1.1" xmlns="http://www.w3.org/2000/svg" width="500" height="500">
<path d="M0 0 C165 0 330 0 500 0 C500 165 500 330 500 500 C335 500 170 500 0 500 C0 335 0 170 0 0 Z " fill="#FFFEFE" transform="translate(0,0)"/>
<path d="M0 0 C1.29423063 -0.01064158 1.29423063 -0.01064158 2.61460733 -0.02149814 C5.48747058 -0.03901115 8.35896883 -0.02100774 11.23181152 -0.00291443 C13.29880894 -0.0080558 15.36580196 -0.01533872 17.43278503 -0.02459717 C23.03407505 -0.0430914 28.63488827 -0.03018477 34.23615837 -0.01050687 C40.10340795 0.00589708 45.97062775 -0.00293571 51.83789062 -0.00802612 C61.69014081 -0.01254511 71.54220101 0.00331082 81.39440918 0.03126526 C92.77798915 0.06331613 104.16122651 0.06330069 115.5448308 0.04605049 C126.50443338 0.03017587 137.46391058 0.03692503 148.42350769 0.0539875 C153.08362676 0.06085243 157.74364518 0.05983123 162.40376282 0.05244255 C167.89339427 0.04477036 173.38263675 0.05693675 178.87220192 0.08429146 C180.88453327 0.09116651 182.896901 0.09128273 184.90923119 0.08407593 C187.66086596 0.07535841 190.4113066 0.09137609 193.1628418 0.11352539 C193.9550722 0.10528462 194.7473026 0.09704386 195.56353998 0.08855337 C201.14501901 0.17121176 205.40352589 1.54103153 210.0814209 4.62818909 C212.4564209 7.12818909 212.4564209 7.12818909 214.0814209 9.62818909 C214.43942087 10.16572689 214.79742085 10.70326469 215.1662693 11.25709152 C216.53408654 14.80101596 216.3632775 18.32015483 216.34884644 22.06575012 C216.35337755 22.92515284 216.35790866 23.78455556 216.36257708 24.67000079 C216.37525534 27.55488096 216.37359849 30.43957317 216.37194824 33.32447815 C216.37793142 35.39088179 216.38473648 37.45728319 216.39230347 39.52368164 C216.40999384 45.14158328 216.41466018 50.75942401 216.41593504 56.37735081 C216.41783311 61.06661841 216.42518975 65.75587179 216.43227923 70.44513392 C216.44857297 81.50990311 216.45344735 92.57463975 216.45202637 103.63941956 C216.45082523 115.05242692 216.47191929 126.46524509 216.50351369 137.87820458 C216.5296707 147.67621508 216.54039387 157.47416378 216.53911555 167.27220893 C216.53860567 173.12429687 216.54430304 178.97621679 216.56547165 184.82826996 C216.58484373 190.33421778 216.58498533 195.83983714 216.57043839 201.34579659 C216.5683478 203.36459139 216.573066 205.3834067 216.5851593 207.40216637 C216.60062265 210.16272702 216.59129637 212.92215673 216.57589722 215.68269348 C216.58618434 216.47765236 216.59647147 217.27261124 216.60707033 218.09165978 C216.53826858 223.69043226 215.16738101 227.93175386 212.0814209 232.62818909 C206.46356089 238.1020014 201.13173571 238.92478636 193.51014709 238.8888855 C192.64847882 238.89271105 191.78681054 238.89653659 190.8990311 238.90047807 C188.01258135 238.91079442 185.12633102 238.9068185 182.23986816 238.90284729 C180.17007259 238.9071945 178.10027863 238.91237768 176.03048706 238.91833496 C170.40864063 238.93173481 164.78686139 238.93230255 159.16500211 238.92977166 C154.47301152 238.92870268 149.78103457 238.93358343 145.0890469 238.93837708 C134.02098347 238.94947556 122.95295399 238.94990767 111.8848877 238.94386292 C100.46333009 238.93782107 89.0418956 238.95013875 77.620359 238.97143298 C67.81641592 238.9890399 58.01251205 238.9950518 48.20855373 238.99179524 C42.35210666 238.98998088 36.49574743 238.99263391 30.63931465 239.00650978 C25.13257959 239.01906873 19.62603671 239.01716225 14.11930466 239.00409889 C12.09806059 239.0017294 10.07680307 239.0044811 8.05557442 239.01272202 C5.29671842 239.02315949 2.53851089 239.01511288 -0.22032166 239.00241089 C-1.0204241 239.00978517 -1.82052654 239.01715946 -2.64487451 239.02475721 C-7.46632385 238.97804678 -10.73184226 238.26664775 -14.9185791 235.62818909 C-20.90133326 229.37349156 -22.21832765 224.5586525 -22.19273376 216.07037354 C-22.19797044 215.21011639 -22.20320712 214.34985924 -22.20860249 213.4635337 C-22.22360082 210.58176693 -22.22430761 207.70017775 -22.22497559 204.81837463 C-22.23259716 202.75182292 -22.24102466 200.68527404 -22.25019836 198.61872864 C-22.27215005 193.00502477 -22.28094316 187.39137537 -22.28602481 181.77763343 C-22.28966751 178.27005158 -22.29590712 174.76248402 -22.3030262 171.25490761 C-22.32752278 159.01710508 -22.3405731 146.77934496 -22.34411621 134.54151917 C-22.34775188 123.13583735 -22.37764916 111.73042457 -22.4195208 100.32482499 C-22.45421426 90.53104024 -22.46966449 80.7373447 -22.47036225 70.94349891 C-22.47115536 65.09473441 -22.47991025 59.24624394 -22.50835991 53.39754295 C-22.53452416 47.89563544 -22.53675462 42.3942295 -22.52070427 36.89228821 C-22.51888851 34.87509887 -22.52559192 32.8578808 -22.54152298 30.84075356 C-22.56197809 28.08222838 -22.55143528 25.32545906 -22.53330994 22.56695557 C-22.5465099 21.77267881 -22.55970987 20.97840205 -22.57330984 20.16005629 C-22.48472026 14.23878675 -20.86081767 10.0879874 -16.9185791 5.62818909 C-11.66027497 0.98369759 -6.86214967 -0.10251884 0 0 Z " fill="#FFFBF8" transform="translate(152.9185791015625,130.37181091308594)"/>
<path d="M0 0 C0.83121368 -0.00511093 1.66242737 -0.01022186 2.51882935 -0.01548767 C5.27060112 -0.02940408 8.02212297 -0.02842519 10.77392578 -0.02612305 C12.68580214 -0.03000923 14.59767763 -0.03434374 16.509552 -0.03910828 C20.51941728 -0.04657517 24.52919453 -0.04627609 28.5390625 -0.04101562 C33.67618022 -0.0352244 38.81293699 -0.05214133 43.94999504 -0.0753603 C47.89968979 -0.09009805 51.84929767 -0.09096921 55.79901505 -0.08785057 C57.69282877 -0.08836389 59.58664734 -0.09360372 61.48043442 -0.10366249 C64.13042324 -0.11600854 66.77970979 -0.10924601 69.4296875 -0.09765625 C70.2111615 -0.10529999 70.9926355 -0.11294373 71.79779053 -0.12081909 C77.57993562 -0.06496632 80.79443998 1.2248599 84.84423828 5.2746582 C85.29158254 9.77911188 85.25844178 14.29867246 85.26977539 18.82275391 C85.28164187 21.06890917 85.33077726 23.31228889 85.38134766 25.55786133 C85.39081576 26.99079065 85.39804895 28.42373683 85.40283203 29.85668945 C85.42301392 31.80925659 85.42301392 31.80925659 85.44360352 33.80126953 C84.6690037 38.29016221 83.42464114 39.49991114 79.84423828 42.2746582 C76.80009867 42.76917164 74.3173351 42.96022809 71.27783203 42.92163086 C70.42681915 42.93039246 69.57580627 42.93915405 68.69900513 42.94818115 C65.89272715 42.97014445 63.0880316 42.95563372 60.28173828 42.9387207 C58.32787779 42.94208973 56.37401934 42.94694307 54.42016602 42.95321655 C50.32792176 42.96058372 46.23622368 42.94988734 42.14404297 42.92651367 C36.90130642 42.89802607 31.65984964 42.91443087 26.41716003 42.94437599 C22.38332495 42.96245314 18.34979275 42.956689 14.31594849 42.94373703 C12.38306527 42.94040418 10.45015446 42.94448586 8.51730347 42.9561348 C5.81434411 42.96885043 3.11345021 42.94945757 0.41064453 42.92163086 C-0.38638885 42.93175201 -1.18342224 42.94187317 -2.00460815 42.95230103 C-6.08400824 42.87458654 -7.9201929 42.46605424 -11.12866211 39.85922241 C-15.48956797 34.29904118 -14.37854647 28.30339068 -14.40576172 21.4621582 C-14.42638672 20.17760742 -14.44701172 18.89305664 -14.46826172 17.56958008 C-14.47341797 16.33143555 -14.47857422 15.09329102 -14.48388672 13.81762695 C-14.49323242 12.68349365 -14.50257813 11.54936035 -14.51220703 10.38085938 C-14.11177779 6.89136536 -13.25520107 5.06560884 -11.15576172 2.2746582 C-7.37734632 -0.24428539 -4.37669648 -0.01380343 0 0 Z " fill="#FFF9EE" transform="translate(161.15576171875,147.725341796875)"/>
<path d="M0 0 C0.82160614 -0.00511093 1.64321228 -0.01022186 2.48971558 -0.01548767 C5.20358581 -0.02937907 7.91720197 -0.02842727 10.63110352 -0.02612305 C12.5191304 -0.03001018 14.4071564 -0.03434488 16.29518127 -0.03910828 C20.25199214 -0.04656948 24.20871377 -0.04627989 28.16552734 -0.04101562 C33.23423686 -0.03522061 38.30258102 -0.05215326 43.37123013 -0.0753603 C47.2703108 -0.09009719 51.16930347 -0.09096941 55.06840706 -0.08785057 C56.9371011 -0.08836379 58.80580006 -0.0936016 60.67446709 -0.10366249 C63.28842744 -0.11600895 65.90167591 -0.10924616 68.515625 -0.09765625 C69.28617722 -0.10529999 70.05672943 -0.11294373 70.85063171 -0.12081909 C75.35315048 -0.07672826 78.26199611 0.46078251 81.82250977 3.2746582 C85.05848043 8.1286142 84.23325823 13.78953549 84.24804688 19.47094727 C84.25993389 21.635839 84.3091092 23.79786892 84.35961914 25.9621582 C84.36908542 27.34495685 84.37631948 28.72777293 84.38110352 30.1105957 C84.4012854 31.99077393 84.4012854 31.99077393 84.421875 33.90893555 C83.6371217 38.31570092 82.33947572 39.54234299 78.82250977 42.2746582 C75.77732793 42.76409809 73.2956451 42.95035073 70.25610352 42.90576172 C69.40509064 42.91291702 68.55407776 42.92007233 67.67727661 42.92744446 C64.87097091 42.94432003 62.06626531 42.92493607 59.26000977 42.90356445 C57.306151 42.90439326 55.3522923 42.90685308 53.3984375 42.91087341 C49.30618265 42.91373063 45.21447535 42.89903753 41.12231445 42.87158203 C35.87970942 42.8374995 30.63808342 42.84351825 25.39543152 42.86224461 C21.3616115 42.87281877 17.32801885 42.86387296 13.29421997 42.84885979 C11.36134517 42.84368058 9.42844659 42.84415661 7.49557495 42.85040474 C4.79283686 42.85586195 2.09149497 42.83546611 -0.61108398 42.80810547 C-1.40811737 42.81463135 -2.20515076 42.82115723 -3.02633667 42.82788086 C-6.7413054 42.76400922 -8.96617763 42.40585982 -12.15039062 40.42881775 C-16.86378766 35.41998189 -15.4016411 27.85547955 -15.42749023 21.3996582 C-15.44811523 20.11961914 -15.46874023 18.83958008 -15.48999023 17.52075195 C-15.49772461 15.67030273 -15.49772461 15.67030273 -15.50561523 13.7824707 C-15.51496094 12.65470215 -15.52430664 11.52693359 -15.53393555 10.36499023 C-15.12987894 6.86187477 -14.33760523 5.04524048 -12.17749023 2.2746582 C-8.44933382 -0.34339735 -4.37483737 -0.01402877 0 0 Z " fill="#FFF9EE" transform="translate(268.177490234375,147.725341796875)"/>
<path d="M0 0 C0.81970779 -0.0065712 1.63941559 -0.0131424 2.48396301 -0.01991272 C5.20382779 -0.03966526 7.92363727 -0.05131337 10.64355469 -0.0612793 C11.57199944 -0.06535482 12.50044418 -0.06943035 13.45702362 -0.07362938 C18.37222573 -0.09449963 23.28739986 -0.10879655 28.20263672 -0.11816406 C33.2780873 -0.12922346 38.35309885 -0.16361519 43.42839432 -0.20333576 C47.33179536 -0.22949263 51.23509172 -0.23785513 55.13857269 -0.24144554 C57.00925406 -0.24631483 58.87993065 -0.25793855 60.75052643 -0.27648354 C63.37179728 -0.30085276 65.99193161 -0.29991405 68.61328125 -0.29296875 C69.76842979 -0.31218384 69.76842979 -0.31218384 70.94691467 -0.33178711 C76.12519905 -0.28188561 79.08625562 0.88652372 83.06542969 4.17700195 C85.25954175 8.56522608 84.37494391 14.42400073 84.41552734 19.29785156 C84.43206973 20.75374354 84.45933805 22.20955486 84.49755859 23.66503906 C84.55251092 25.76971318 84.57422585 27.87248702 84.58886719 29.9777832 C84.61859619 31.86750854 84.61859619 31.86750854 84.64892578 33.79541016 C83.88511264 38.22201094 82.59494869 39.43700851 79.06542969 42.17700195 C76.02024785 42.66644184 73.53856502 42.85269448 70.49902344 42.80810547 C69.64801056 42.81526077 68.79699768 42.82241608 67.92019653 42.82978821 C65.11389083 42.84666378 62.30918523 42.82727982 59.50292969 42.8059082 C57.54907092 42.80673701 55.59521223 42.80919683 53.64135742 42.81321716 C49.54910257 42.81607438 45.45739528 42.80138128 41.36523438 42.77392578 C36.12262934 42.73984325 30.88100334 42.745862 25.63835144 42.76458836 C21.60453142 42.77516252 17.57093878 42.76621671 13.53713989 42.75120354 C11.60426509 42.74602433 9.67136652 42.74650036 7.73849487 42.75274849 C5.03575678 42.7582057 2.33441489 42.73780986 -0.36816406 42.71044922 C-1.16519745 42.7169751 -1.96223083 42.72350098 -2.78341675 42.73022461 C-6.49838548 42.66635297 -8.72325771 42.30820357 -11.9074707 40.3311615 C-16.59925451 35.3452936 -15.23846099 27.79989556 -15.30957031 21.36450195 C-15.34695312 20.0928418 -15.38433594 18.82118164 -15.42285156 17.51098633 C-15.52171397 7.02607905 -15.52171397 7.02607905 -12.53613281 3.3527832 C-8.35086091 -0.14751177 -5.26513348 0.01819264 0 0 Z " fill="#FFF8ED" transform="translate(267.9345703125,248.822998046875)"/>
<path d="M0 0 C2.3125 0.4375 2.3125 0.4375 4.3125 2.4375 C6.10423366 13.84801434 1.85785279 24.5979203 -4.76953125 33.75390625 C-6.0066396 35.70321714 -6.0066396 35.70321714 -5.6875 39.4375 C-3.3775 38.4475 -1.0675 37.4575 1.3125 36.4375 C1.41046875 35.36113281 1.5084375 34.28476562 1.609375 33.17578125 C4.16096507 7.39612738 4.16096507 7.39612738 12.3125 0.4375 C14.9375 -0.1875 14.9375 -0.1875 17.3125 0.4375 C20.04752925 2.70097249 20.30208048 4.36586577 20.8125 7.875 C20.43344286 17.12744031 15.40947418 25.91440036 10.3515625 33.4140625 C10.00867188 34.08179688 9.66578125 34.74953125 9.3125 35.4375 C9.6425 36.4275 9.9725 37.4175 10.3125 38.4375 C13.60325996 38.05845792 13.60325996 38.05845792 16.3125 36.4375 C16.55505813 35.02306465 16.78160894 33.60586778 17 32.1875 C17.73085782 28.79307147 18.46856153 26.7251218 21.0625 24.375 C24.58937156 22.27244196 26.28988741 21.79753891 30.3125 22.4375 C32.3125 24.4375 32.3125 24.4375 32.4375 28.0625 C32.39625 29.17625 32.355 30.29 32.3125 31.4375 C30.9925 31.7675 29.6725 32.0975 28.3125 32.4375 C28.3125 30.7875 28.3125 29.1375 28.3125 27.4375 C26.9925 28.0975 25.6725 28.7575 24.3125 29.4375 C24.3125 32.4075 24.3125 35.3775 24.3125 38.4375 C27.86115136 38.51815117 30.89639775 38.38064127 34.3125 37.4375 C34.43367188 36.52226562 34.55484375 35.60703125 34.6796875 34.6640625 C34.84726562 33.47554688 35.01484375 32.28703125 35.1875 31.0625 C35.34992188 29.87914062 35.51234375 28.69578125 35.6796875 27.4765625 C36.3125 24.4375 36.3125 24.4375 38.3125 22.4375 C39.6325 22.4375 40.9525 22.4375 42.3125 22.4375 C42.3125 24.7475 42.3125 27.0575 42.3125 29.4375 C43.364375 27.9834375 43.364375 27.9834375 44.4375 26.5 C46.55567041 23.93398785 47.197283 23.47073567 50.5625 22.5 C51.92375 22.4690625 51.92375 22.4690625 53.3125 22.4375 C53.6425 22.7675 53.9725 23.0975 54.3125 23.4375 C54.22312197 24.96269276 54.06712854 26.48431929 53.875 28 C53.72224609 29.23943359 53.72224609 29.23943359 53.56640625 30.50390625 C53.44072266 31.46103516 53.44072266 31.46103516 53.3125 32.4375 C56.11181196 31.03784402 56.82549244 28.82323531 58.21484375 26.12890625 C59.3125 24.4375 59.3125 24.4375 62.3125 22.4375 C68.37956793 21.89579751 68.37956793 21.89579751 71.25 23.5625 C72.87074231 26.42263349 72.82992613 28.20358669 72.3125 31.4375 C69.68882897 34.64420904 67.16038585 36.8698428 63.3125 38.4375 C68.63420494 38.73312367 68.63420494 38.73312367 73.3125 36.4375 C73.93125 34.58125 73.93125 34.58125 74.5625 32.6875 C76.21591403 27.91870586 78.97864749 24.99798179 83.3125 22.4375 C86.25 22.0625 86.25 22.0625 88.3125 22.4375 C88.3125 23.0975 88.3125 23.7575 88.3125 24.4375 C89.9625 24.4375 91.6125 24.4375 93.3125 24.4375 C92.78712276 29.4677076 92.20655214 34.45635239 91.3125 39.4375 C94.49484105 37.68295615 94.49484105 37.68295615 97.3125 35.4375 C97.54442865 33.92280552 97.72465238 32.39995438 97.875 30.875 C97.95878906 30.04871094 98.04257812 29.22242188 98.12890625 28.37109375 C98.18949219 27.73300781 98.25007812 27.09492188 98.3125 26.4375 C96.9925 26.4375 95.6725 26.4375 94.3125 26.4375 C94.6425 25.1175 94.9725 23.7975 95.3125 22.4375 C96.6325 22.4375 97.9525 22.4375 99.3125 22.4375 C99.45945312 21.47650391 99.45945312 21.47650391 99.609375 20.49609375 C100.6187614 14.65731554 101.94503473 10.3356313 105.3125 5.4375 C108.52058915 3.2987739 109.58948497 2.96019038 113.3125 3.4375 C115.81548979 7.19198468 115.44084335 8.83585025 114.87109375 13.140625 C114.03871565 16.56327059 112.49178509 18.69581876 110.3125 21.4375 C111.9625 21.7675 113.6125 22.0975 115.3125 22.4375 C114.9825 23.7575 114.6525 25.0775 114.3125 26.4375 C111.0125 26.4375 107.7125 26.4375 104.3125 26.4375 C104.43625 27.860625 104.56 29.28375 104.6875 30.75 C104.79191406 31.95076172 104.79191406 31.95076172 104.8984375 33.17578125 C105.20814426 35.70974441 105.20814426 35.70974441 107.3125 38.4375 C111.49012205 37.97331977 113.48932961 37.52954376 116.3125 34.4375 C117.3025 34.4375 118.2925 34.4375 119.3125 34.4375 C119.09948668 38.16523314 118.31159564 39.43849259 115.75 42.25 C113.26185308 44.14003468 111.37092222 44.83449655 108.25 45 C103.9874728 44.39106754 102.31507144 43.44007144 99.3125 40.4375 C98.590625 41.0975 97.86875 41.7575 97.125 42.4375 C94.06695938 44.61210666 92.95315878 45.01234086 89.3125 44.4375 C88.3225 43.7775 87.3325 43.1175 86.3125 42.4375 C85.3225 43.0975 84.3325 43.7575 83.3125 44.4375 C79.23759248 44.77707563 77.78248729 44.75082486 74.3125 42.4375 C73.74402344 42.75847656 73.17554688 43.07945312 72.58984375 43.41015625 C68.87646605 45.08531634 65.29995896 45.15410739 61.3125 44.4375 C58.25 42.0625 58.25 42.0625 56.3125 39.4375 C56.3125 38.7775 56.3125 38.1175 56.3125 37.4375 C54.6109375 37.4684375 54.6109375 37.4684375 52.875 37.5 C49.3125 37.4375 49.3125 37.4375 48.3125 36.4375 C48.27157063 34.10452567 48.27008277 31.77044775 48.3125 29.4375 C47.6525 29.4375 46.9925 29.4375 46.3125 29.4375 C46.02632813 30.15292969 45.74015625 30.86835938 45.4453125 31.60546875 C43.734375 35.8828125 42.0234375 40.16015625 40.3125 44.4375 C39.52875 44.2725 38.745 44.1075 37.9375 43.9375 C34.6606673 43.31334139 33.53471 43.36343 30.3125 44.4375 C25.1388941 44.68783577 22.11272545 44.35759018 17.3125 42.4375 C16.3225 43.0975 15.3325 43.7575 14.3125 44.4375 C10.49703778 44.7843602 8.17971204 44.97116895 4.875 42.9375 C4.359375 42.4425 3.84375 41.9475 3.3125 41.4375 C2.796875 41.9325 2.28125 42.4275 1.75 42.9375 C-1.57546936 44.98394269 -3.85056413 44.85607482 -7.6875 44.4375 C-9.625 42.9375 -9.625 42.9375 -10.6875 41.4375 C-13.3780528 42.65757944 -13.3780528 42.65757944 -15.6875 44.4375 C-19.30809232 44.73106154 -21.56453962 44.28814319 -24.6875 42.4375 C-25.3475 43.0975 -26.0075 43.7575 -26.6875 44.4375 C-29.79097254 44.76765665 -31.84531176 44.94281294 -34.5625 43.3125 C-36.1557099 40.65715017 -35.88964032 38.46960482 -35.6875 35.4375 C-37.9975 35.4375 -40.3075 35.4375 -42.6875 35.4375 C-42.935 36.18 -43.1825 36.9225 -43.4375 37.6875 C-44.82327971 40.73621536 -46.03818125 42.39373982 -48.6875 44.4375 C-51.4375 44.6875 -51.4375 44.6875 -53.6875 44.4375 C-54.6775 42.4575 -55.6675 40.4775 -56.6875 38.4375 C-57.244375 39.4275 -57.80125 40.4175 -58.375 41.4375 C-60.6875 44.4375 -60.6875 44.4375 -63.3125 44.9375 C-65.6875 44.4375 -65.6875 44.4375 -67.6875 42.4375 C-68.85992384 38.34507718 -68.78956956 34.3589431 -68.75 30.125 C-68.74097656 28.87074219 -68.73195312 27.61648438 -68.72265625 26.32421875 C-68.71105469 25.37160156 -68.69945312 24.41898437 -68.6875 23.4375 C-67.03135343 23.05531233 -65.36292976 22.72354898 -63.6875 22.4375 C-61.74659174 24.37840826 -62.28830565 27.91043902 -62.125 30.5 C-62.04121094 31.79035156 -61.95742187 33.08070313 -61.87109375 34.41015625 C-61.81050781 35.40917969 -61.74992188 36.40820312 -61.6875 37.4375 C-61.34976563 36.52226562 -61.01203125 35.60703125 -60.6640625 34.6640625 C-60.21804687 33.47554688 -59.77203125 32.28703125 -59.3125 31.0625 C-58.87164062 29.87914062 -58.43078125 28.69578125 -57.9765625 27.4765625 C-56.6875 24.4375 -56.6875 24.4375 -54.6875 22.4375 C-53.3675 22.7675 -52.0475 23.0975 -50.6875 23.4375 C-50.1925 30.3675 -50.1925 30.3675 -49.6875 37.4375 C-47.29291252 33.84561878 -46.93998127 30.91017629 -46.25 26.71484375 C-45.6875 24.4375 -45.6875 24.4375 -43.6875 22.4375 C-41.0625 22.8125 -41.0625 22.8125 -38.6875 23.4375 C-38.6875 25.7475 -38.6875 28.0575 -38.6875 30.4375 C-35.34941229 29.38838672 -33.72868025 28.48193133 -31.3125 25.875 C-28.10458066 22.89621775 -25.98051247 22.69003015 -21.6875 22.4375 C-21.6875 23.0975 -21.6875 23.7575 -21.6875 24.4375 C-20.3675 24.4375 -19.0475 24.4375 -17.6875 24.4375 C-17.59711901 29.58921623 -17.84068867 34.35663204 -18.6875 39.4375 C-15.56552522 38.1285428 -15.56552522 38.1285428 -13.6875 35.4375 C-13.47618762 33.31391515 -13.26943339 31.18971593 -13.0925293 29.06298828 C-11.4140147 9.28628093 -11.4140147 9.28628093 -5.25 2.25 C-2.6875 0.4375 -2.6875 0.4375 0 0 Z " fill="#FF5F5F" transform="translate(228.6875,303.5625)"/>
<path d="M0 0 C0.87958374 0.00302124 1.75916748 0.00604248 2.66540527 0.00915527 C5.93721321 0.02479907 9.20885331 0.06668303 12.48046875 0.10546875 C19.80234375 0.16734375 27.12421875 0.22921875 34.66796875 0.29296875 C34.66796875 16.46296875 34.66796875 32.63296875 34.66796875 49.29296875 C27.36671875 49.37546875 20.06546875 49.45796875 12.54296875 49.54296875 C9.10093018 49.59759277 9.10093018 49.59759277 5.58935547 49.65332031 C3.75879857 49.66500909 1.92823123 49.67520047 0.09765625 49.68359375 C-1.31374634 49.71428955 -1.31374634 49.71428955 -2.75366211 49.74560547 C-8.44379147 49.74861851 -11.92591476 49.2689098 -16.33203125 45.29296875 C-20.65412812 39.89277452 -19.81804253 33.56803521 -19.77807617 27.00073242 C-19.76956818 24.86474127 -19.79834844 22.73143037 -19.83007812 20.59570312 C-19.83169061 19.22526121 -19.8311117 17.85481461 -19.828125 16.484375 C-19.82997803 15.24888916 -19.83183105 14.01340332 -19.83374023 12.74047852 C-19.10027141 7.70042343 -17.00733354 4.77117665 -13.2277832 1.4362793 C-8.83982245 -0.29619016 -4.67371972 -0.07582232 0 0 Z " fill="#FFF8ED" transform="translate(320.33203125,195.70703125)"/>
<path d="M0 0 C9.4359375 -0.12375 9.4359375 -0.12375 19.0625 -0.25 C22.02101929 -0.30462402 22.02101929 -0.30462402 25.03930664 -0.36035156 C26.62124547 -0.37204563 28.20319644 -0.38223576 29.78515625 -0.390625 C30.59142456 -0.41108887 31.39769287 -0.43155273 32.22839355 -0.45263672 C37.97946061 -0.4561515 41.33197827 0.56738331 46 4 C50.38914825 9.3045591 49.4857393 15.76962563 49.44604492 22.29223633 C49.43753693 24.42822748 49.46631719 26.56153838 49.49804688 28.69726562 C49.49965936 30.06770754 49.49908045 31.43815414 49.49609375 32.80859375 C49.49887329 34.66182251 49.49887329 34.66182251 49.50170898 36.55249023 C48.89290088 40.7359351 47.74215804 42.79686466 45 46 C40.07107068 49.41451152 35.65457999 49.40214576 29.8828125 49.29296875 C29.12218506 49.28994751 28.36155762 49.28692627 27.57788086 49.28381348 C24.76011416 49.26822009 21.9425422 49.22633658 19.125 49.1875 C12.81375 49.125625 6.5025 49.06375 0 49 C0 32.83 0 16.66 0 0 Z " fill="#FFF5EB" transform="translate(145,196)"/>
<path d="M0 0 C1.28830215 -0.01007584 1.28830215 -0.01007584 2.60263062 -0.02035522 C5.44697835 -0.03938022 8.29109061 -0.04326189 11.13549805 -0.04541016 C13.11223956 -0.05183572 15.08898011 -0.0585639 17.0657196 -0.06558228 C21.21261805 -0.07756684 25.35943311 -0.08126196 29.50634766 -0.08007812 C34.81608201 -0.07987504 40.12528047 -0.10716072 45.43488789 -0.14162254 C49.51930691 -0.16388014 53.60359684 -0.16791599 57.6880703 -0.16685867 C59.645264 -0.16921698 61.60246113 -0.17805343 63.55959511 -0.19352341 C66.30052598 -0.21315715 69.04029981 -0.20735537 71.78125 -0.1953125 C72.58718094 -0.20655151 73.39311188 -0.21779053 74.22346497 -0.22937012 C79.4465 -0.17116404 82.45771703 0.80512342 86.5847168 4.29052734 C87.9597168 7.04052734 87.9597168 7.04052734 88.5847168 9.29052734 C89.2447168 9.29052734 89.9047168 9.29052734 90.5847168 9.29052734 C90.8115918 8.54802734 91.0384668 7.80552734 91.2722168 7.04052734 C92.92291835 3.58191457 94.33575906 2.33858247 97.5847168 0.29052734 C100.55575427 -0.0969173 103.15248519 -0.25731029 106.11938477 -0.22705078 C106.96718506 -0.23406006 107.81498535 -0.24106934 108.68847656 -0.24829102 C111.48495457 -0.26586402 114.28041637 -0.25424877 117.0769043 -0.24072266 C119.02597243 -0.24341827 120.97503925 -0.24730128 122.92410278 -0.25231934 C127.00788178 -0.25821387 131.09131058 -0.24965469 135.17504883 -0.23095703 C140.39949455 -0.20819787 145.62311693 -0.22127168 150.84753227 -0.24524689 C154.87283479 -0.2597319 158.89794361 -0.25508595 162.92325211 -0.24473572 C164.84889957 -0.24207433 166.77456483 -0.24531743 168.7001915 -0.25465393 C171.39768469 -0.26486068 174.09386393 -0.24925997 176.79125977 -0.22705078 C177.97602402 -0.23919617 177.97602402 -0.23919617 179.1847229 -0.25158691 C184.74045118 -0.1672289 187.98843659 1.14425861 192.5847168 4.29052734 C196.25871436 8.96249459 194.95657995 16.24104181 194.95532227 21.93457031 C194.95968949 24.15166393 194.99601307 26.36675517 195.03393555 28.58349609 C195.03980574 30.00406225 195.04377378 31.4246378 195.0456543 32.84521484 C195.05387207 34.12895996 195.06208984 35.41270508 195.07055664 36.73535156 C194.4840602 41.02709083 193.45132742 43.05084476 190.5847168 46.29052734 C185.29769903 49.0726263 181.10573181 49.73011963 175.19018555 49.69458008 C174.38110748 49.70144333 173.57202942 49.70830658 172.73843384 49.71537781 C170.08284607 49.73357345 167.42785309 49.72981924 164.7722168 49.72412109 C162.91568817 49.72868591 161.05916122 49.73399238 159.20263672 49.74000549 C155.31918454 49.74892203 151.43593818 49.74652955 147.55249023 49.73657227 C142.58594938 49.72507611 137.62011885 49.74531135 132.65367126 49.7744894 C128.82226074 49.79286887 124.99101997 49.79255561 121.15957642 49.78685188 C119.32881676 49.78669893 117.49804541 49.79272196 115.66732788 49.80514336 C113.10418582 49.82008733 110.54235032 49.8093526 107.97924805 49.79223633 C107.22995026 49.8019043 106.48065247 49.81157227 105.70864868 49.8215332 C100.27025639 49.7458115 97.07125642 48.39200306 92.5847168 45.29052734 C90.6472168 42.54052734 90.6472168 42.54052734 89.5847168 40.29052734 C89.19799805 40.77263672 88.8112793 41.25474609 88.4128418 41.75146484 C87.89206055 42.38310547 87.3712793 43.01474609 86.8347168 43.66552734 C86.32424805 44.29201172 85.8137793 44.91849609 85.2878418 45.56396484 C81.76920071 49.1310276 78.66817356 49.52493159 73.6960144 49.58380127 C72.52548019 49.58244171 72.52548019 49.58244171 71.33129883 49.58105469 C70.0866687 49.59113052 70.0866687 49.59113052 68.81689453 49.60140991 C66.07537844 49.62039921 63.33410705 49.62431457 60.5925293 49.62646484 C58.68447774 49.63289212 56.77642717 49.63962043 54.86837769 49.64663696 C50.86869014 49.65861205 46.86908898 49.66231755 42.86938477 49.66113281 C37.74912077 49.66092961 32.62941174 49.68823196 27.50927925 49.72267723 C23.56811997 49.74493608 19.62709446 49.74897066 15.68587875 49.74791336 C13.79846153 49.75027084 11.9110407 49.75910263 10.02368546 49.77457809 C7.38103847 49.79421762 4.73959094 49.78840835 2.09692383 49.77636719 C1.32061615 49.7876062 0.54430847 49.79884521 -0.25552368 49.8104248 C-6.41447826 49.73926598 -9.90108203 47.70109121 -14.26318359 43.51879883 C-15.9306516 40.29375527 -15.86360249 37.18648317 -15.84887695 33.63818359 C-15.85673973 32.53246254 -15.85673973 32.53246254 -15.86476135 31.40440369 C-15.8711714 29.84863542 -15.86985768 28.29281863 -15.86132812 26.73706055 C-15.85282262 24.36402535 -15.88158121 21.9934027 -15.91333008 19.62060547 C-15.91494247 18.10563223 -15.91436384 16.59065475 -15.91137695 15.07568359 C-15.92261093 14.37032974 -15.93384491 13.66497589 -15.94541931 12.93824768 C-15.8774651 8.10357698 -14.83537993 5.68197161 -11.4152832 2.29052734 C-7.58132178 -0.26544694 -4.44524116 -0.00496185 0 0 Z M-12.4152832 8.29052734 C-14.68494203 12.829845 -13.69048303 19.05722485 -13.7277832 24.04052734 C-13.75678711 25.31669922 -13.78579102 26.59287109 -13.81567383 27.90771484 C-14.01974349 36.95603319 -14.01974349 36.95603319 -9.4152832 44.29052734 C-6.20786644 45.89423572 -2.71414803 45.46481133 0.81054688 45.48339844 C1.66112167 45.49157593 2.51169647 45.49975342 3.38804626 45.50817871 C6.21010632 45.53304366 9.03211605 45.54955116 11.85424805 45.56396484 C12.81703863 45.56928852 13.77982922 45.5746122 14.77179527 45.5800972 C19.86738667 45.60683305 24.96295353 45.62620691 30.05859375 45.640625 C35.32480259 45.65727769 40.5903862 45.70205944 45.85635853 45.75299644 C49.90297677 45.78663298 53.94944593 45.79819847 57.99619102 45.80385208 C59.93749459 45.81057407 61.87878802 45.82582066 63.81995583 45.84974289 C66.53739174 45.88132177 69.25313231 45.88144242 71.97070312 45.87402344 C73.17332291 45.89863144 73.17332291 45.89863144 74.40023804 45.92373657 C78.43954548 45.87860007 80.35162528 45.47095511 83.58364868 42.96916199 C86.20288751 39.46304253 86.21606965 37.2921095 86.21362305 32.94287109 C86.216035 32.24915909 86.21844696 31.55544708 86.22093201 30.8407135 C86.21995647 29.38081112 86.20663253 27.92087041 86.18164062 26.46118164 C86.14725478 24.23049122 86.16100883 22.00375049 86.18041992 19.77294922 C86.17352259 18.35040638 86.1638512 16.92787371 86.15112305 15.50537109 C86.13480835 13.57359009 86.13480835 13.57359009 86.11816406 11.6027832 C85.49964479 7.76230219 84.6593823 6.59295128 81.5847168 4.29052734 C77.83865951 3.04184158 74.33263419 3.1188262 70.42895508 3.09765625 C69.59774139 3.08947876 68.76652771 3.08130127 67.91012573 3.07287598 C65.15843423 3.04805541 62.40679412 3.03151639 59.6550293 3.01708984 C58.71522091 3.01176617 57.77541252 3.00644249 56.80712509 3.00095749 C51.83472255 2.97424311 46.862345 2.95486091 41.88989258 2.94042969 C36.75262114 2.92376673 31.61598933 2.87897037 26.47896004 2.82805824 C22.52927911 2.79442214 18.57975091 2.78285641 14.62994003 2.77720261 C12.73608372 2.77048235 10.84223773 2.75524021 8.94852066 2.7313118 C6.29823646 2.6997286 3.64969018 2.69961256 0.99926758 2.70703125 C0.21779358 2.69062592 -0.56368042 2.67422058 -1.36883545 2.65731812 C-6.80062963 2.71954212 -9.0824411 4.05444433 -12.4152832 8.29052734 Z M94.5847168 6.29052734 C90.99249938 11.2643147 92.25751528 18.39152584 92.2722168 24.22802734 C92.25610352 25.50355469 92.23999023 26.77908203 92.22338867 28.09326172 C92.22274414 29.32238281 92.22209961 30.55150391 92.22143555 31.81787109 C92.21845459 32.9392749 92.21547363 34.06067871 92.21240234 35.21606445 C92.63152895 38.67708832 93.50467309 40.51622062 95.5847168 43.29052734 C99.39954612 45.83374689 102.50105464 45.5932683 106.92407227 45.59692383 C108.2001535 45.6094091 108.2001535 45.6094091 109.50201416 45.62214661 C112.31869055 45.64627279 115.13513549 45.65502184 117.9519043 45.66162109 C119.90862092 45.67058535 121.86533682 45.67970715 123.822052 45.6889801 C127.92606269 45.70547971 132.02999171 45.713172 136.1340332 45.71606445 C141.39240723 45.72144963 146.65001354 45.75913117 151.9081707 45.80480862 C155.95051882 45.83455375 159.99268149 45.84178746 164.03512955 45.8427906 C165.97362917 45.84699787 167.91212909 45.85945243 169.85052109 45.88030815 C172.56311205 45.90717032 175.27391614 45.90241297 177.98657227 45.88989258 C178.78674774 45.90472687 179.58692322 45.91956116 180.41134644 45.93484497 C184.44993255 45.88177339 186.35540481 45.46867881 189.58265686 42.96144104 C192.16101732 39.52169473 192.2161194 37.46831222 192.21362305 33.19677734 C192.216035 32.52763306 192.21844696 31.85848877 192.22093201 31.16906738 C192.21995659 29.7604375 192.20663528 28.35176783 192.18164062 26.94335938 C192.14730477 24.79602927 192.16099605 22.65281485 192.18041992 20.50537109 C192.17352091 19.13165579 192.16384799 17.75795103 192.15112305 16.38427734 C192.13480835 14.52319336 192.13480835 14.52319336 192.11816406 12.62451172 C191.49238841 8.71348551 190.38442247 7.04735607 187.5847168 4.29052734 C183.86171519 3.04952681 180.39893059 3.13497997 176.52075195 3.12939453 C175.69929184 3.12442963 174.87783173 3.11946472 174.03147888 3.11434937 C171.31223719 3.09973669 168.59305382 3.09292748 165.8737793 3.08740234 C163.98432412 3.08165047 162.09486896 3.07589274 160.20541382 3.07012939 C156.24265267 3.05962217 152.27991179 3.05377758 148.31713867 3.05029297 C143.24057796 3.04480666 138.16428524 3.02077454 133.08780861 2.99232101 C129.18445045 2.97369393 125.28115687 2.96848901 121.37775803 2.96695709 C119.50626535 2.96393055 117.6347738 2.95590199 115.76332474 2.94277191 C113.1444994 2.92570878 110.52632915 2.92759215 107.9074707 2.93408203 C106.74928581 2.92025986 106.74928581 2.92025986 105.56770325 2.90615845 C101.0577642 2.94115233 98.17971564 3.51723339 94.5847168 6.29052734 Z " fill="#FF6B6A" transform="translate(160.415283203125,144.70947265625)"/>
<path d="M0 0 C1.29423063 -0.01064158 1.29423063 -0.01064158 2.61460733 -0.02149814 C5.48747058 -0.03901115 8.35896883 -0.02100774 11.23181152 -0.00291443 C13.29880894 -0.0080558 15.36580196 -0.01533872 17.43278503 -0.02459717 C23.03407505 -0.0430914 28.63488827 -0.03018477 34.23615837 -0.01050687 C40.10340795 0.00589708 45.97062775 -0.00293571 51.83789062 -0.00802612 C61.69014081 -0.01254511 71.54220101 0.00331082 81.39440918 0.03126526 C92.77798915 0.06331613 104.16122651 0.06330069 115.5448308 0.04605049 C126.50443338 0.03017587 137.46391058 0.03692503 148.42350769 0.0539875 C153.08362676 0.06085243 157.74364518 0.05983123 162.40376282 0.05244255 C167.89339427 0.04477036 173.38263675 0.05693675 178.87220192 0.08429146 C180.88453327 0.09116651 182.896901 0.09128273 184.90923119 0.08407593 C187.66086596 0.07535841 190.4113066 0.09137609 193.1628418 0.11352539 C193.9550722 0.10528462 194.7473026 0.09704386 195.56353998 0.08855337 C201.14501901 0.17121176 205.40352589 1.54103153 210.0814209 4.62818909 C212.4564209 7.12818909 212.4564209 7.12818909 214.0814209 9.62818909 C214.43942087 10.16572689 214.79742085 10.70326469 215.1662693 11.25709152 C216.53408654 14.80101596 216.3632775 18.32015483 216.34884644 22.06575012 C216.35337755 22.92515284 216.35790866 23.78455556 216.36257708 24.67000079 C216.37525534 27.55488096 216.37359849 30.43957317 216.37194824 33.32447815 C216.37793142 35.39088179 216.38473648 37.45728319 216.39230347 39.52368164 C216.40999384 45.14158328 216.41466018 50.75942401 216.41593504 56.37735081 C216.41783311 61.06661841 216.42518975 65.75587179 216.43227923 70.44513392 C216.44857297 81.50990311 216.45344735 92.57463975 216.45202637 103.63941956 C216.45082523 115.05242692 216.47191929 126.46524509 216.50351369 137.87820458 C216.5296707 147.67621508 216.54039387 157.47416378 216.53911555 167.27220893 C216.53860567 173.12429687 216.54430304 178.97621679 216.56547165 184.82826996 C216.58484373 190.33421778 216.58498533 195.83983714 216.57043839 201.34579659 C216.5683478 203.36459139 216.573066 205.3834067 216.5851593 207.40216637 C216.60062265 210.16272702 216.59129637 212.92215673 216.57589722 215.68269348 C216.58618434 216.47765236 216.59647147 217.27261124 216.60707033 218.09165978 C216.53826858 223.69043226 215.16738101 227.93175386 212.0814209 232.62818909 C206.46356089 238.1020014 201.13173571 238.92478636 193.51014709 238.8888855 C192.64847882 238.89271105 191.78681054 238.89653659 190.8990311 238.90047807 C188.01258135 238.91079442 185.12633102 238.9068185 182.23986816 238.90284729 C180.17007259 238.9071945 178.10027863 238.91237768 176.03048706 238.91833496 C170.40864063 238.93173481 164.78686139 238.93230255 159.16500211 238.92977166 C154.47301152 238.92870268 149.78103457 238.93358343 145.0890469 238.93837708 C134.02098347 238.94947556 122.95295399 238.94990767 111.8848877 238.94386292 C100.46333009 238.93782107 89.0418956 238.95013875 77.620359 238.97143298 C67.81641592 238.9890399 58.01251205 238.9950518 48.20855373 238.99179524 C42.35210666 238.98998088 36.49574743 238.99263391 30.63931465 239.00650978 C25.13257959 239.01906873 19.62603671 239.01716225 14.11930466 239.00409889 C12.09806059 239.0017294 10.07680307 239.0044811 8.05557442 239.01272202 C5.29671842 239.02315949 2.53851089 239.01511288 -0.22032166 239.00241089 C-1.0204241 239.00978517 -1.82052654 239.01715946 -2.64487451 239.02475721 C-7.46632385 238.97804678 -10.73184226 238.26664775 -14.9185791 235.62818909 C-20.90133326 229.37349156 -22.21832765 224.5586525 -22.19273376 216.07037354 C-22.19797044 215.21011639 -22.20320712 214.34985924 -22.20860249 213.4635337 C-22.22360082 210.58176693 -22.22430761 207.70017775 -22.22497559 204.81837463 C-22.23259716 202.75182292 -22.24102466 200.68527404 -22.25019836 198.61872864 C-22.27215005 193.00502477 -22.28094316 187.39137537 -22.28602481 181.77763343 C-22.28966751 178.27005158 -22.29590712 174.76248402 -22.3030262 171.25490761 C-22.32752278 159.01710508 -22.3405731 146.77934496 -22.34411621 134.54151917 C-22.34775188 123.13583735 -22.37764916 111.73042457 -22.4195208 100.32482499 C-22.45421426 90.53104024 -22.46966449 80.7373447 -22.47036225 70.94349891 C-22.47115536 65.09473441 -22.47991025 59.24624394 -22.50835991 53.39754295 C-22.53452416 47.89563544 -22.53675462 42.3942295 -22.52070427 36.89228821 C-22.51888851 34.87509887 -22.52559192 32.8578808 -22.54152298 30.84075356 C-22.56197809 28.08222838 -22.55143528 25.32545906 -22.53330994 22.56695557 C-22.5465099 21.77267881 -22.55970987 20.97840205 -22.57330984 20.16005629 C-22.48472026 14.23878675 -20.86081767 10.0879874 -16.9185791 5.62818909 C-11.66027497 0.98369759 -6.86214967 -0.10251884 0 0 Z M-18.9185791 11.62818909 C-20.1826469 15.42039247 -20.06327749 18.97011825 -20.059021 22.92098999 C-20.06199212 23.77686587 -20.06496324 24.63274174 -20.0680244 25.51455325 C-20.07672229 28.39334336 -20.07822056 31.27209194 -20.07971191 34.15089417 C-20.0843393 36.21054168 -20.08936385 38.27018833 -20.09475708 40.32983398 C-20.1078904 45.93318596 -20.11432781 51.53652595 -20.11876774 57.13989091 C-20.12169686 60.63906596 -20.12580135 64.13823772 -20.13027191 67.63741112 C-20.14394907 78.58096483 -20.15361475 89.52451104 -20.1574738 100.46807271 C-20.16195576 113.10933311 -20.17950916 125.75048544 -20.2084744 138.39171296 C-20.23007565 148.15739375 -20.24017725 157.92304411 -20.24151492 167.68874854 C-20.24256403 173.52399482 -20.24849443 179.35913956 -20.26633453 185.19436073 C-20.28278833 190.68300127 -20.28498377 196.17146363 -20.27619553 201.66012001 C-20.27542372 203.67491635 -20.27978671 205.68972215 -20.28965378 207.70449448 C-20.30233285 210.45468858 -20.29651843 213.20424777 -20.28607178 215.95443726 C-20.29412818 216.75201299 -20.30218459 217.54958872 -20.31048512 218.37133342 C-20.26176898 223.8537608 -19.26414323 228.11551097 -15.38342285 232.27272034 C-10.13798588 236.28393684 -7.19261633 236.77555854 -0.70806885 236.76863098 C0.15103616 236.7716021 1.01014116 236.77457323 1.89527965 236.77763438 C4.79099529 236.78634679 7.68666972 236.78783178 10.58239746 236.7893219 C12.65174956 236.79394831 14.72110081 236.79897273 16.79045105 236.80436707 C22.42485299 236.81751097 28.059243 236.82394001 33.69365788 236.82837772 C37.21175612 236.83130552 40.72985109 236.83540979 44.24794769 236.8398819 C55.24916992 236.85356268 66.25038467 236.86322623 77.25161481 236.86708379 C89.96193561 236.87156473 102.67214889 236.88911195 115.38243699 236.91808438 C125.1990526 236.93968593 135.01563793 236.94978727 144.83227706 236.95112491 C150.69883715 236.95217412 156.56529624 236.95810656 162.43183136 236.97594452 C167.95082705 236.99239854 173.46964555 236.99459363 178.988657 236.98580551 C181.01474036 236.98503368 183.04083314 236.98939702 185.06689262 236.99926376 C187.83246579 237.01194223 190.59740751 237.0061287 193.36297607 236.99568176 C194.56619928 237.00776637 194.56619928 237.00776637 195.79373002 237.02009511 C201.28987403 236.97152561 205.51967802 235.96479067 209.72595215 232.12818909 C213.88915512 226.78146688 214.22894808 222.91194382 214.22186279 216.33538818 C214.22483392 215.47951231 214.22780504 214.62363643 214.23086619 213.74182492 C214.23956408 210.86303481 214.24106236 207.98428623 214.24255371 205.10548401 C214.2471811 203.04583649 214.25220565 200.98618984 214.25759888 198.92654419 C214.2707322 193.32319222 214.27716961 187.71985223 214.28160954 182.11648726 C214.28453865 178.61731221 214.28864315 175.11814045 214.29311371 171.61896706 C214.30679086 160.67541334 214.31645655 149.73186713 214.3203156 138.78830546 C214.32479755 126.14704507 214.34235096 113.50589274 214.37131619 100.86466521 C214.39291744 91.09898442 214.40301904 81.33333407 214.40435672 71.56762964 C214.40540583 65.73238335 214.41133623 59.89723862 214.42917633 54.06201744 C214.44563013 48.5733769 214.44782556 43.08491454 214.43903732 37.59625816 C214.43826552 35.58146183 214.44262851 33.56665602 214.45249557 31.5518837 C214.46517465 28.80168959 214.45936023 26.05213041 214.44891357 23.30194092 C214.45696998 22.50436518 214.46502638 21.70678945 214.47332692 20.88504475 C214.42460446 15.40190572 213.40799751 11.17894105 209.5814209 6.98365784 C204.22523979 2.81308973 200.33903002 2.47951508 193.75065613 2.48101807 C192.46071699 2.47550303 192.46071699 2.47550303 191.14471847 2.46987659 C188.25211264 2.45882984 185.35954272 2.45499425 182.46691895 2.45118713 C180.39741908 2.44492331 178.32792035 2.43827658 176.25842285 2.43127441 C170.62821582 2.41385906 164.99801728 2.40331151 159.36778998 2.39506888 C155.8518641 2.38992061 152.33594087 2.38384485 148.82001686 2.37755775 C137.82413947 2.35850549 126.82826881 2.34427356 115.83237809 2.33594579 C103.13052568 2.32616762 90.42884728 2.29983304 77.72705621 2.25944489 C67.91466741 2.22931241 58.10232858 2.21447969 48.2898944 2.21116477 C42.42666619 2.20881133 36.56362385 2.19981228 30.70044518 2.1747036 C25.18550304 2.15146766 19.67086977 2.14717168 14.15589142 2.15746498 C12.13141415 2.15796152 10.10692191 2.15160658 8.08249092 2.13790894 C5.31900071 2.1202563 2.55662698 2.12726345 -0.2068634 2.14044189 C-1.00833009 2.12947265 -1.80979677 2.1185034 -2.63555032 2.10720176 C-10.15271661 2.19377353 -14.63995627 5.44795611 -18.9185791 11.62818909 Z " fill="#FF6B6B" transform="translate(152.9185791015625,130.37181091308594)"/>
<path d="M0 0 C1.25904144 -0.0076664 1.25904144 -0.0076664 2.54351807 -0.01548767 C5.3229482 -0.0294063 8.10213091 -0.02842484 10.8815918 -0.02612305 C12.81349276 -0.03000947 14.74539287 -0.03434403 16.67729187 -0.03910828 C20.73003913 -0.04657591 24.78269929 -0.04627581 28.83544922 -0.04101562 C34.02403329 -0.03522819 39.21225956 -0.05213181 44.40078449 -0.0753603 C48.39255349 -0.09010943 52.38423664 -0.09096759 56.37602806 -0.08785057 C58.2885528 -0.08836345 60.20108239 -0.09359493 62.1135807 -0.10366249 C64.79210076 -0.11602881 67.46992814 -0.10923349 70.1484375 -0.09765625 C71.32928169 -0.10912186 71.32928169 -0.10912186 72.53398132 -0.12081909 C77.32846862 -0.07512263 80.62344039 0.61281832 84.76831055 3.2746582 C87.14331055 6.4621582 87.14331055 6.4621582 88.76831055 9.2746582 C89.32518555 8.3465332 89.88206055 7.4184082 90.45581055 6.4621582 C92.86992574 3.13459402 94.08815926 1.96482626 97.76831055 0.2746582 C100.66700432 -0.01064468 103.34717512 -0.13585033 106.24291992 -0.11352539 C107.08417923 -0.11878235 107.92543854 -0.12403931 108.79219055 -0.12945557 C111.56567089 -0.14263079 114.33857463 -0.1339263 117.11206055 -0.1237793 C119.04349884 -0.12580074 120.97493639 -0.12871277 122.90637207 -0.13247681 C126.95140866 -0.1368968 130.99624632 -0.1304795 135.04125977 -0.11645508 C140.22318101 -0.09936344 145.40463608 -0.10920635 150.58654022 -0.12717247 C154.57398992 -0.13801903 158.56132931 -0.13455995 162.54878235 -0.12678909 C164.45933589 -0.1247895 166.36989948 -0.12723789 168.28044128 -0.13422775 C170.95179733 -0.14185654 173.62240107 -0.13021812 176.29370117 -0.11352539 C177.47522514 -0.12263443 177.47522514 -0.12263443 178.68061829 -0.13192749 C184.68857011 -0.06246519 187.81903866 1.36526538 192.04760742 5.50732422 C194.2506827 9.05043691 194.28486825 11.39591829 194.29956055 15.55200195 C194.30338745 16.24097061 194.30721436 16.92993927 194.31115723 17.63978577 C194.31386873 19.09125232 194.30656075 20.54276837 194.28979492 21.99414062 C194.26840216 24.20270062 194.2896002 26.4079965 194.31518555 28.61645508 C194.31254149 30.03247781 194.30741489 31.44849853 194.29956055 32.86450195 C194.29504883 34.14188232 194.29053711 35.4192627 194.28588867 36.73535156 C193.67535534 40.91030519 192.45477815 43.04882602 189.76831055 46.2746582 C185.96759692 49.0019061 181.61628452 48.57741673 177.13183594 48.58105469 C176.26146194 48.5893782 175.39108795 48.59770172 174.49433899 48.60627747 C171.6181694 48.63036636 168.74222655 48.63914751 165.8659668 48.64575195 C163.86583895 48.65471795 161.86571179 48.66383979 159.86558533 48.67311096 C155.67339447 48.68959966 151.48128347 48.69730107 147.2890625 48.70019531 C141.91750334 48.70558405 136.54669443 48.74328508 131.17534733 48.78893948 C127.04464473 48.81867923 122.91412365 48.82591817 118.78332329 48.82692146 C116.80295812 48.83112861 114.82259265 48.84358265 112.84233284 48.86443901 C110.0723862 48.89129415 107.30419001 48.88654613 104.53417969 48.87402344 C103.71687378 48.88885773 102.89956787 48.90369202 102.05749512 48.91897583 C97.83301548 48.86458748 96.25284561 48.66422031 92.84544373 45.92469788 C90.76831055 43.2746582 90.76831055 43.2746582 88.76831055 40.2746582 C88.35838867 40.76836914 87.9484668 41.26208008 87.52612305 41.77075195 C86.98729492 42.41141602 86.4484668 43.05208008 85.89331055 43.7121582 C85.35963867 44.35024414 84.8259668 44.98833008 84.27612305 45.64575195 C81.85459566 48.26175434 80.82697742 48.2721619 77.15142822 48.42855835 C75.55925542 48.44678339 73.96701174 48.45930706 72.37475586 48.4675293 C71.07204239 48.47979553 71.07204239 48.47979553 69.74301147 48.49230957 C66.86082655 48.51717872 63.97869096 48.53368417 61.09643555 48.5480957 C60.11282799 48.55341938 59.12922043 48.55874306 58.11580658 48.56422806 C52.90883666 48.59096725 47.70189077 48.61033901 42.49487305 48.62475586 C37.11666797 48.64139848 31.7390763 48.68617098 26.36110306 48.7371273 C22.22608742 48.77078748 18.09121752 48.78233201 13.95607758 48.78798294 C11.97373522 48.79469964 9.99140258 48.80993257 8.00919342 48.83387375 C5.23210234 48.86549949 2.4566673 48.86556594 -0.32055664 48.8581543 C-1.13740936 48.87455963 -1.95426208 48.89096497 -2.79586792 48.90786743 C-6.91647309 48.86292151 -9.46587902 48.49655379 -12.72613525 45.8631897 C-17.80256565 40.61864142 -16.52939952 33.78794041 -16.58178711 26.87207031 C-16.5983347 25.27068537 -16.62560955 23.66937394 -16.66381836 22.06835938 C-16.71871676 19.75522705 -16.74047864 17.44382384 -16.75512695 15.13012695 C-16.77779633 14.41849899 -16.8004657 13.70687103 -16.82382202 12.97367859 C-16.80738755 9.08785566 -16.37768512 7.45307202 -13.88647461 4.40869141 C-9.04629627 0.51794293 -6.03955728 -0.01886104 0 0 Z M-13.23168945 8.2746582 C-15.50134828 12.81397586 -14.50688928 19.04135571 -14.54418945 24.0246582 C-14.57319336 25.30083008 -14.60219727 26.57700195 -14.63208008 27.8918457 C-14.83614974 36.94016405 -14.83614974 36.94016405 -10.23168945 44.2746582 C-7.02427269 45.87836658 -3.53055428 45.44894219 -0.00585938 45.4675293 C0.84471542 45.47570679 1.69529022 45.48388428 2.57164001 45.49230957 C5.39370007 45.51717451 8.2157098 45.53368202 11.0378418 45.5480957 C12.00063238 45.55341938 12.96342297 45.55874306 13.95538902 45.56422806 C19.05098042 45.5909639 24.14654728 45.61033777 29.2421875 45.62475586 C34.50839634 45.64140855 39.77397995 45.6861903 45.03995228 45.7371273 C49.08657052 45.77076384 53.13303968 45.78232933 57.17978477 45.78798294 C59.12108834 45.79470493 61.06238177 45.80995152 63.00354958 45.83387375 C65.72098549 45.86545263 68.43672606 45.86557328 71.15429688 45.8581543 C72.35691666 45.8827623 72.35691666 45.8827623 73.58383179 45.90786743 C77.62787314 45.86267803 79.53457416 45.45610961 82.76724243 42.94656372 C85.34390916 39.5060961 85.39971294 37.45209116 85.3972168 33.1809082 C85.39962875 32.51176392 85.40204071 31.84261963 85.40452576 31.15319824 C85.40355034 29.74456836 85.39022903 28.33589869 85.36523438 26.92749023 C85.33089852 24.78016013 85.3445898 22.63694571 85.36401367 20.48950195 C85.35711466 19.11578665 85.34744174 17.74208189 85.3347168 16.3684082 C85.3184021 14.50732422 85.3184021 14.50732422 85.30175781 12.60864258 C84.67598216 8.69761637 83.56801622 7.03148693 80.76831055 4.2746582 C77.05358077 3.03641495 73.59072905 3.10307316 69.72021484 3.08178711 C68.90036102 3.07360962 68.0805072 3.06543213 67.23580933 3.05700684 C64.52139005 3.0321849 61.80702292 3.0156457 59.0925293 3.0012207 C58.16500162 2.99589703 57.23747395 2.99057335 56.28183937 2.98508835 C51.37312268 2.95837164 46.4644313 2.93899136 41.55566406 2.92456055 C37.49423733 2.91121558 33.43331234 2.88335072 29.37207031 2.8425293 C24.46671713 2.79322416 19.56181943 2.76844226 14.65622902 2.76133347 C12.78831829 2.75461998 10.92041776 2.73939534 9.05264854 2.71544266 C6.43609063 2.68379974 3.8212891 2.68375253 1.20458984 2.69116211 C0.43606186 2.67475677 -0.33246613 2.65835144 -1.12428284 2.64144897 C-6.9530437 2.70887407 -9.3062218 4.26666427 -13.23168945 8.2746582 Z M92.76831055 8.2746582 C90.49634266 12.81859398 91.53815577 19.09856644 91.51831055 24.0871582 C91.49768555 25.37170898 91.47706055 26.65625977 91.45581055 27.97973633 C91.4506543 29.21788086 91.44549805 30.45602539 91.44018555 31.73168945 C91.43083984 32.86582275 91.42149414 33.99995605 91.41186523 35.16845703 C91.81229448 38.65795105 92.6688712 40.48370756 94.76831055 43.2746582 C98.58313987 45.81787775 101.68464839 45.57739916 106.10766602 45.58105469 C107.38374725 45.59353996 107.38374725 45.59353996 108.68560791 45.60627747 C111.5022843 45.63040365 114.31872924 45.6391527 117.13549805 45.64575195 C119.09221467 45.65471621 121.04893057 45.66383801 123.00564575 45.67311096 C127.10965644 45.68961057 131.21358546 45.69730286 135.31762695 45.70019531 C140.57600098 45.70558049 145.83360729 45.74326203 151.09176445 45.78893948 C155.13411257 45.81868461 159.17627524 45.82591831 163.2187233 45.82692146 C165.15722292 45.83112873 167.09572284 45.84358329 169.03411484 45.86443901 C171.7467058 45.89130118 174.45750989 45.88654383 177.17016602 45.87402344 C177.97034149 45.88885773 178.77051697 45.90369202 179.59494019 45.91897583 C183.63329421 45.8659073 185.538582 45.45319235 188.76525879 42.9455719 C191.34087576 39.51118703 191.41298065 37.44723556 191.43237305 33.1809082 C191.43715668 32.51176392 191.44194031 31.84261963 191.4468689 31.15319824 C191.45025711 29.74460486 191.44112977 28.33593169 191.42016602 26.92749023 C191.39337343 24.77969934 191.4199382 22.63713167 191.4519043 20.48950195 C191.44859999 19.11579258 191.4421933 17.74208645 191.43237305 16.3684082 C191.4267334 15.12768555 191.42109375 13.88696289 191.4152832 12.60864258 C190.60140512 8.41455992 189.02493799 6.9459421 185.76831055 4.2746582 C182.63230224 2.70665405 179.27815967 3.10064232 175.83374023 3.08178711 C175.01403244 3.07360962 174.19432465 3.06543213 173.34977722 3.05700684 C170.62992079 3.03214157 167.91011664 3.01563304 165.19018555 3.0012207 C164.2617408 2.99589703 163.33329605 2.99057335 162.37671661 2.98508835 C157.46152064 2.95835053 152.54635011 2.93897855 147.63110352 2.92456055 C142.55555231 2.90792039 137.4806514 2.86314982 132.40534592 2.8121891 C128.5019456 2.77851993 124.59869961 2.76698342 120.69516754 2.76133347 C118.8244658 2.75461897 116.95377429 2.73939173 115.08321381 2.71544266 C112.46175821 2.68379766 109.8420557 2.68375309 107.22045898 2.69116211 C106.45035995 2.67475677 105.68026093 2.65835144 104.88682556 2.64144897 C99.05244114 2.70880376 96.69691024 4.26189654 92.76831055 8.2746582 Z " fill="#FF6464" transform="translate(161.231689453125,245.725341796875)"/>
<path d="M0 0 C0.83965302 -0.00686325 1.67930603 -0.0137265 2.54440308 -0.02079773 C5.31305979 -0.03906153 8.08114962 -0.03522883 10.84985352 -0.02954102 C12.77889693 -0.03410307 14.70793872 -0.03940871 16.63697815 -0.04542542 C20.67781176 -0.05435573 24.71844772 -0.05193433 28.75927734 -0.04199219 C33.93222838 -0.03050352 39.1044967 -0.05071289 44.27735806 -0.07990932 C48.26056741 -0.09827407 52.24361325 -0.09797829 56.22685432 -0.0922718 C58.13379944 -0.09211862 60.04075566 -0.09816068 61.94766045 -0.11056328 C64.61658161 -0.12547642 67.28424269 -0.11479416 69.953125 -0.09765625 C70.73721237 -0.10732422 71.52129974 -0.11699219 72.32914734 -0.12695312 C78.40970064 -0.04538065 81.98229896 1.9126285 86.39135742 6.20532227 C88.05015991 9.37712168 87.93028401 12.01880508 87.93969727 15.58374023 C87.94256744 16.27412384 87.94543762 16.96450745 87.94839478 17.67581177 C87.95043159 19.13324811 87.94492837 20.59071202 87.93237305 22.0480957 C87.91636101 24.26503564 87.9322073 26.4801392 87.95141602 28.69702148 C87.94943256 30.11759839 87.94558676 31.53817416 87.93969727 32.95874023 C87.93631348 34.24248535 87.93292969 35.52623047 87.92944336 36.84887695 C87.50141025 40.76901419 86.70217604 43.11339219 84.54125977 46.40405273 C80.27474574 49.78240828 76.22358994 49.8377191 70.99072266 49.80810547 C69.71661278 49.81840034 69.71661278 49.81840034 68.41676331 49.8289032 C65.61564301 49.84716863 62.81508295 49.84333405 60.01391602 49.83764648 C58.06245237 49.84220845 56.11099034 49.84751407 54.15953064 49.85353088 C50.07161936 49.86246152 45.98390344 49.86003942 41.89599609 49.85009766 C36.66251388 49.8386089 31.42970648 49.85881836 26.1963129 49.88801479 C22.16678091 49.90637861 18.13741056 49.90608394 14.10784721 49.90037727 C12.17857352 49.90022408 10.24928885 49.90626705 8.32005501 49.91866875 C5.62000571 49.93358011 2.92120226 49.92290084 0.22119141 49.90576172 C-0.96896576 49.92026367 -0.96896576 49.92026367 -2.1831665 49.93505859 C-7.38675956 49.86604299 -10.31141799 48.80983305 -14.45874023 45.40405273 C-18.78083711 40.0038585 -17.94475152 33.67911919 -17.90478516 27.11181641 C-17.89627717 24.97582525 -17.92505743 22.84251435 -17.95678711 20.70678711 C-17.95839959 19.3363452 -17.95782068 17.96589859 -17.95483398 16.59545898 C-17.95668701 15.35997314 -17.95854004 14.1244873 -17.96044922 12.8515625 C-17.23950897 7.89759789 -15.29033533 4.83011037 -11.34481812 1.75817871 C-7.55188692 -0.021436 -4.10519258 -0.02350828 0 0 Z M-3.45874023 4.40405273 C-3.45874023 4.73405273 -3.45874023 5.06405273 -3.45874023 5.40405273 C3.47125977 5.89905273 3.47125977 5.89905273 10.54125977 6.40405273 C10.87125977 7.39405273 11.20125977 8.38405273 11.54125977 9.40405273 C10.51645508 9.34604492 9.49165039 9.28803711 8.43579102 9.22827148 C7.07515966 9.18135316 5.71447881 9.13585521 4.35375977 9.09155273 C3.68022461 9.0496582 3.00668945 9.00776367 2.31274414 8.96459961 C-1.55523097 8.87025875 -3.28072457 9.26959409 -6.39624023 11.62280273 C-8.49440413 14.45214496 -9.11671574 15.76550559 -9.27124023 19.21655273 C-9.31893555 20.00674805 -9.36663086 20.79694336 -9.41577148 21.61108398 C-9.42995117 22.20276367 -9.44413086 22.79444336 -9.45874023 23.40405273 C-10.11874023 23.40405273 -10.77874023 23.40405273 -11.45874023 23.40405273 C-11.78874023 20.10405273 -12.11874023 16.80405273 -12.45874023 13.40405273 C-12.78874023 13.40405273 -13.11874023 13.40405273 -13.45874023 13.40405273 C-13.60406058 17.96621738 -13.692825 22.52778635 -13.77124023 27.09155273 C-13.81313477 28.38512695 -13.8550293 29.67870117 -13.89819336 31.01147461 C-13.91430664 32.25864258 -13.93041992 33.50581055 -13.94702148 34.79077148 C-13.97320557 35.93763428 -13.99938965 37.08449707 -14.02636719 38.26611328 C-13.25892389 42.50867187 -11.83425957 43.75833815 -8.45874023 46.40405273 C-5.47009422 46.88867488 -3.05742236 47.07009357 -0.07592773 47.01928711 C1.17133087 47.02761063 1.17133087 47.02761063 2.44378662 47.03610229 C5.18520208 47.04788796 7.92496057 47.02363525 10.66625977 46.99780273 C12.57527593 46.99609126 14.48429444 46.99615768 16.39331055 46.9979248 C20.39142383 46.99627218 24.38897599 46.97758465 28.38696289 46.94604492 C33.50839231 46.90636758 38.62908692 46.90200005 43.75064087 46.90950775 C47.69180009 46.91257923 51.63279451 46.90045056 55.57391357 46.88337708 C57.46212734 46.87635238 59.35035978 46.8732219 61.23858643 46.87406921 C63.87888252 46.87226881 66.51830287 46.85086657 69.15844727 46.82397461 C70.32594513 46.82837051 70.32594513 46.82837051 71.51702881 46.83285522 C76.0283808 46.76206108 78.97288493 46.22545717 82.54125977 43.40405273 C85.77723043 38.55009674 84.95200823 32.88917545 84.96679688 27.20776367 C84.97868389 25.04287194 85.0278592 22.88084202 85.07836914 20.71655273 C85.08783542 19.33375409 85.09506948 17.950938 85.09985352 16.56811523 C85.11330811 15.31466309 85.1267627 14.06121094 85.140625 12.76977539 C84.3578963 8.37437909 83.03816514 7.13779176 79.54125977 4.40405273 C76.61058981 3.93443572 74.27418642 3.76719598 71.35449219 3.83642578 C70.5442157 3.83569565 69.73393921 3.83496552 68.89910889 3.83421326 C66.23095876 3.83768624 63.56457219 3.8765317 60.89672852 3.91577148 C59.04300388 3.92510069 57.18926689 3.93221629 55.33552551 3.93721008 C50.46409883 3.9562715 45.59342136 4.00536488 40.72229004 4.06072998 C35.74863825 4.11194097 30.77486502 4.13472807 25.80102539 4.15991211 C16.04744159 4.21348447 6.29441306 4.29878691 -3.45874023 4.40405273 Z " fill="#FF6363" transform="translate(212.458740234375,195.595947265625)"/>
<path d="M0 0 C5.16684023 2.36198411 7.6532148 5.97956794 10 11 C10.65284282 13.99543822 10.67386718 16.86109287 10.62818909 19.9185791 C10.63528347 20.78139952 10.64237786 21.64421994 10.64968723 22.53318644 C10.66720023 25.40604968 10.64919683 28.27754793 10.63110352 31.15039062 C10.63624489 33.21738804 10.64352781 35.28438106 10.65278625 37.35136414 C10.67128049 42.95265415 10.65837386 48.55346738 10.63869596 54.15473747 C10.622292 60.02198705 10.63112479 65.88920686 10.63621521 71.75646973 C10.64073419 81.60871991 10.62487826 91.46078011 10.59692383 101.31298828 C10.56487295 112.69656825 10.5648884 124.07980561 10.5821386 135.4634099 C10.59801321 146.42301248 10.59126405 157.38248969 10.57420158 168.34208679 C10.56733666 173.00220587 10.56835786 177.66222428 10.57574654 182.32234192 C10.58341873 187.81197337 10.57125233 193.30121585 10.54389763 198.79078102 C10.53702258 200.80311237 10.53690636 202.8154801 10.54411316 204.82781029 C10.55283068 207.57944506 10.53681299 210.3298857 10.5146637 213.0814209 C10.52290446 213.8736513 10.53114523 214.6658817 10.53963572 215.48211908 C10.43995363 222.21311733 8.41549035 227.51922612 3.6875 232.375 C-2.17522977 235.91990637 -8.01786285 236.28519548 -14.66233826 236.20254517 C-15.50953102 236.20017046 -16.35672378 236.19779576 -17.22958905 236.1953491 C-20.05480791 236.18497191 -22.87970818 236.16010373 -25.70483398 236.13525391 C-27.73539304 236.12482284 -29.76595687 236.11528853 -31.79652405 236.10658264 C-37.30014754 236.08044916 -42.80361987 236.04178139 -48.3071506 236.00085878 C-54.06199126 235.96020058 -59.81689001 235.93107583 -65.5717926 235.90072632 C-76.46557056 235.84152422 -87.35925663 235.77195353 -98.25294787 235.69865549 C-110.65669881 235.61570204 -123.06050788 235.54431078 -135.46433532 235.47388959 C-160.97630902 235.32878953 -186.48817538 235.16917324 -212 235 C-212 234.67 -212 234.34 -212 234 C-210.93355444 233.99761165 -209.86710888 233.99522329 -208.76834679 233.99276257 C-182.82929133 233.93398964 -156.89032892 233.85812047 -130.95137596 233.76428509 C-118.40753392 233.71930368 -105.86372042 233.67989439 -93.31982422 233.65356445 C-82.38762416 233.63060341 -71.45551424 233.59722653 -60.52338564 233.55129844 C-54.73395421 233.52734077 -48.94461219 233.50862863 -43.15513229 233.50238609 C-37.70669913 233.49634681 -32.25849484 233.47638862 -26.81014633 233.44572449 C-24.80988655 233.43692574 -22.80959689 233.43322547 -20.80931854 233.43499184 C-18.07861758 233.43664195 -15.34861649 233.41996761 -12.61801147 233.39872742 C-11.43025118 233.40599878 -11.43025118 233.40599878 -10.21849573 233.41341704 C-5.42378055 233.35185305 -2.16979666 232.61034499 2 230 C6.84137083 224.76608559 7.14785025 220.583625 7.14044189 213.7071991 C7.14341302 212.85132322 7.14638414 211.99544735 7.1494453 211.11363584 C7.15814319 208.23484573 7.15964146 205.35609715 7.16113281 202.47729492 C7.1657602 200.41764741 7.17078475 198.35800075 7.17617798 196.2983551 C7.1893113 190.69500313 7.19574871 185.09166314 7.20018864 179.48829818 C7.20311776 175.98912313 7.20722225 172.48995137 7.21169281 168.99077797 C7.22536996 158.04722426 7.23503565 147.10367804 7.2388947 136.16011637 C7.24337665 123.51885598 7.26093006 110.87770365 7.2898953 98.23647612 C7.31149654 88.47079533 7.32159814 78.70514498 7.32293582 68.93944055 C7.32398493 63.10419426 7.32991533 57.26904953 7.34775543 51.43382835 C7.36420923 45.94518781 7.36640466 40.45672546 7.35761642 34.96806908 C7.35684462 32.95327274 7.36120761 30.93846693 7.37107468 28.92369461 C7.38375375 26.1735005 7.37793933 23.42394132 7.36749268 20.67375183 C7.37554908 19.8761761 7.38360548 19.07860036 7.39190602 18.25685567 C7.33914498 12.3192221 6.07157663 8.13076453 1.8125 3.75 C1.214375 3.1725 0.61625 2.595 0 2 C0 1.34 0 0.68 0 0 Z " fill="#FF7878" transform="translate(359,133)"/>
<path d="M0 0 C0.87958374 0.00302124 1.75916748 0.00604248 2.66540527 0.00915527 C5.93721321 0.02479907 9.20885331 0.06668303 12.48046875 0.10546875 C19.80234375 0.16734375 27.12421875 0.22921875 34.66796875 0.29296875 C34.66796875 16.46296875 34.66796875 32.63296875 34.66796875 49.29296875 C27.36671875 49.37546875 20.06546875 49.45796875 12.54296875 49.54296875 C9.10093018 49.59759277 9.10093018 49.59759277 5.58935547 49.65332031 C3.75879857 49.66500909 1.92823123 49.67520047 0.09765625 49.68359375 C-1.31374634 49.71428955 -1.31374634 49.71428955 -2.75366211 49.74560547 C-8.44379147 49.74861851 -11.92591476 49.2689098 -16.33203125 45.29296875 C-20.65412812 39.89277452 -19.81804253 33.56803521 -19.77807617 27.00073242 C-19.76956818 24.86474127 -19.79834844 22.73143037 -19.83007812 20.59570312 C-19.83169061 19.22526121 -19.8311117 17.85481461 -19.828125 16.484375 C-19.82997803 15.24888916 -19.83183105 14.01340332 -19.83374023 12.74047852 C-19.10027141 7.70042343 -17.00733354 4.77117665 -13.2277832 1.4362793 C-8.83982245 -0.29619016 -4.67371972 -0.07582232 0 0 Z M-14.41333008 6.9074707 C-16.54267293 10.66464048 -16.95216415 12.76115356 -16.92578125 17.046875 C-16.92320312 18.31337891 -16.920625 19.57988281 -16.91796875 20.88476562 C-16.88960938 22.19509766 -16.86125 23.50542969 -16.83203125 24.85546875 C-16.83460938 26.16966797 -16.8371875 27.48386719 -16.83984375 28.83789062 C-16.92110267 37.08937501 -16.92110267 37.08937501 -13.33203125 44.29296875 C-10.2414717 46.35334178 -9.62276963 46.54096117 -6.13598633 46.52001953 C-5.28363403 46.51977783 -4.43128174 46.51953613 -3.55310059 46.51928711 C-2.66159302 46.50905518 -1.77008545 46.49882324 -0.8515625 46.48828125 C-0.02893921 46.48626709 0.79368408 46.48425293 1.64123535 46.48217773 C4.71270324 46.47171758 7.78409163 46.44379497 10.85546875 46.41796875 C17.72359375 46.37671875 24.59171875 46.33546875 31.66796875 46.29296875 C31.66796875 32.43296875 31.66796875 18.57296875 31.66796875 4.29296875 C25.63394203 4.15507732 19.60539314 4.03569274 13.57104492 3.96337891 C11.51942409 3.93323423 9.46793185 3.89231039 7.41674805 3.84033203 C4.46500934 3.76741429 1.51497601 3.73348974 -1.4375 3.70703125 C-2.80964912 3.66057968 -2.80964912 3.66057968 -4.20951843 3.6131897 C-8.48518654 3.61093794 -11.38943565 3.66883673 -14.41333008 6.9074707 Z " fill="#FF6968" transform="translate(320.33203125,195.70703125)"/>
<path d="M0 0 C9.4359375 -0.12375 9.4359375 -0.12375 19.0625 -0.25 C22.02101929 -0.30462402 22.02101929 -0.30462402 25.03930664 -0.36035156 C26.62124547 -0.37204563 28.20319644 -0.38223576 29.78515625 -0.390625 C30.59142456 -0.41108887 31.39769287 -0.43155273 32.22839355 -0.45263672 C37.97946061 -0.4561515 41.33197827 0.56738331 46 4 C50.38914825 9.3045591 49.4857393 15.76962563 49.44604492 22.29223633 C49.43753693 24.42822748 49.46631719 26.56153838 49.49804688 28.69726562 C49.49965936 30.06770754 49.49908045 31.43815414 49.49609375 32.80859375 C49.49887329 34.66182251 49.49887329 34.66182251 49.50170898 36.55249023 C48.89290088 40.7359351 47.74215804 42.79686466 45 46 C40.07107068 49.41451152 35.65457999 49.40214576 29.8828125 49.29296875 C29.12218506 49.28994751 28.36155762 49.28692627 27.57788086 49.28381348 C24.76011416 49.26822009 21.9425422 49.22633658 19.125 49.1875 C12.81375 49.125625 6.5025 49.06375 0 49 C0 32.83 0 16.66 0 0 Z M2 3 C2 17.19 2 31.38 2 46 C11.2503125 46.1546875 11.2503125 46.1546875 20.6875 46.3125 C23.59502075 46.38078003 23.59502075 46.38078003 26.5612793 46.45043945 C28.10724153 46.46505008 29.65322307 46.4777894 31.19921875 46.48828125 C32.39158142 46.526651 32.39158142 46.526651 33.60803223 46.5657959 C37.9335762 46.56918635 39.49360619 46.40773868 42.98754883 43.59448242 C47.0625511 38.34092799 46.2569475 33.20661108 46.29516602 26.73364258 C46.31235006 24.70519971 46.35623375 22.67840006 46.40039062 20.65039062 C46.41295898 18.72549805 46.41295898 18.72549805 46.42578125 16.76171875 C46.44036377 15.58569092 46.45494629 14.40966309 46.4699707 13.19799805 C45.80817947 8.69472361 43.85760843 6.39346796 40.26660156 3.69970703 C36.78901881 2.6261663 33.33644361 2.75599017 29.734375 2.8046875 C28.67887451 2.80770874 28.67887451 2.80770874 27.60205078 2.81079102 C24.98463379 2.82122009 22.36731005 2.84914268 19.75 2.875 C10.96375 2.936875 10.96375 2.936875 2 3 Z " fill="#FF5D5D" transform="translate(145,196)"/>
<path d="M0 0 C0.33 0 0.66 0 1 0 C1.00146656 1.04821898 1.00293312 2.09643797 1.00444412 3.17642117 C1.04105158 28.69093852 1.10051763 54.20532472 1.18390274 79.71973324 C1.22369902 92.05835626 1.25608858 104.39691544 1.27099609 116.7355957 C1.28400949 127.49095288 1.31096638 138.24616964 1.35461307 149.00144774 C1.37723467 154.69542837 1.39291025 160.38923575 1.39188385 166.0832653 C1.39113767 171.44558259 1.40907215 176.80751679 1.44116783 182.16973495 C1.44966784 184.13486928 1.45141609 186.10004657 1.44580269 188.06519127 C1.4391428 190.75561094 1.45713056 193.44481883 1.48101807 196.13511658 C1.47325765 196.9065454 1.46549723 197.67797423 1.45750165 198.47277969 C1.56466755 205.32549793 3.52740056 211.52740056 8.4375 216.4375 C13.77536486 219.69229565 18.23281001 220.29368834 24.42182922 220.2784729 C25.26731313 220.2842653 26.11279704 220.2900577 26.98390168 220.29602563 C29.81523424 220.31302265 32.64640376 220.31590189 35.4777832 220.31884766 C37.50805562 220.32814603 39.53832421 220.33831457 41.56858826 220.34928894 C47.08050496 220.37661316 52.59239607 220.39174558 58.10436273 220.40471697 C63.86462356 220.42033686 69.62483205 220.44713073 75.38505554 220.4727478 C86.29298729 220.51955577 97.20092886 220.55629014 108.10890979 220.58942068 C120.5272015 220.62762778 132.94544067 220.67704165 145.36368811 220.72740483 C170.90908647 220.83075472 196.45451858 220.92000521 222 221 C222 221.33 222 221.66 222 222 C194.85342772 222.07005469 167.70686897 222.12297085 140.56022453 222.15543652 C127.95580907 222.17091098 115.35144975 222.19201164 102.74707031 222.22631836 C91.76218603 222.25620289 80.7773424 222.27557079 69.7924186 222.28226548 C63.97500395 222.28617932 58.15770562 222.29538959 52.34032822 222.31719017 C46.86569137 222.33754027 41.39121885 222.34383674 35.91654778 222.33932304 C33.90658742 222.3401489 31.89662162 222.34612327 29.88669395 222.35761642 C27.14291892 222.37253731 24.39976468 222.368955 21.65597534 222.36076355 C20.8602442 222.36950207 20.06451305 222.3782406 19.24466884 222.38724393 C14.43174327 222.34839361 11.17986718 221.63281992 7 219 C1.03044321 212.75909972 -0.30260625 207.97368777 -0.24050903 199.50224304 C-0.24221788 198.64859203 -0.24392673 197.79494101 -0.24568737 196.91542178 C-0.24898032 194.05640335 -0.23798171 191.19761985 -0.22705078 188.33862305 C-0.22648663 186.28865057 -0.22680331 184.23867769 -0.22793579 182.18870544 C-0.22851013 176.62302798 -0.21674255 171.05743654 -0.20278788 165.49177909 C-0.19029416 159.67549814 -0.18911109 153.85921527 -0.18673706 148.04292297 C-0.1805183 137.02870462 -0.1641021 126.01452591 -0.14403808 115.00032502 C-0.12169142 102.46115451 -0.11068875 89.92198211 -0.10064721 77.38279665 C-0.07973624 51.5885091 -0.04455254 25.79425677 0 0 Z " fill="#FF5757" transform="translate(131,147)"/>
<path d="M0 0 C0.66 0.33 1.32 0.66 2 1 C1.34773437 1.85207031 0.69546875 2.70414063 0.0234375 3.58203125 C-3.31991535 9.44396456 -2.49762788 16.14627056 -2.375 22.6875 C-2.37371094 24.00556641 -2.37242187 25.32363281 -2.37109375 26.68164062 C-2.63720462 34.19865219 -2.63720462 34.19865219 0 41 C3.86362592 43.57575061 7.03341179 43.26624186 11.51049805 43.22705078 C12.81325684 43.22748886 12.81325684 43.22748886 14.14233398 43.22793579 C17.01556356 43.22654147 19.88853442 43.21097544 22.76171875 43.1953125 C24.75283161 43.19158273 26.7439463 43.18873559 28.73506165 43.18673706 C33.97776347 43.17909775 39.22035462 43.15944666 44.4630127 43.1373291 C49.81191511 43.11687712 55.16083539 43.10773673 60.50976562 43.09765625 C71.00655906 43.07620108 81.50327033 43.0420615 92 43 C91.67 44.32 91.34 45.64 91 47 C79.6299195 47.09272773 68.25992913 47.16377926 56.88954735 47.20724869 C51.60965991 47.22811311 46.3300314 47.25641012 41.05029297 47.30175781 C35.95392948 47.345256 30.85781487 47.36914573 25.76128006 47.37950897 C23.81802071 47.38689318 21.8747748 47.40131288 19.93162155 47.42292023 C17.20720865 47.45200697 14.48382083 47.4559538 11.75927734 47.45410156 C10.55733734 47.47567322 10.55733734 47.47567322 9.33111572 47.49768066 C4.09589761 47.45923146 1.16995987 46.43581462 -3 43 C-7.32209687 37.59980577 -6.48601128 31.27506646 -6.44604492 24.70776367 C-6.43753693 22.57177252 -6.46631719 20.43846162 -6.49804688 18.30273438 C-6.49965936 16.93229246 -6.49908045 15.56184586 -6.49609375 14.19140625 C-6.49794678 12.95592041 -6.4997998 11.72043457 -6.50170898 10.44750977 C-5.90824183 6.36948072 -4.55822852 4.1923423 -2 1 C-1.34 0.67 -0.68 0.34 0 0 Z " fill="#FF5A5A" transform="translate(201,198)"/>
<path d="M0 0 C0.82934555 -0.00014603 1.6586911 -0.00029205 2.51316833 -0.0004425 C5.2618977 0.00025568 8.01055978 0.00804368 10.75927734 0.01586914 C12.66213952 0.01773366 14.56500217 0.0191574 16.46786499 0.02015686 C21.4820284 0.0239794 26.49616295 0.03380746 31.51031494 0.04486084 C36.62454844 0.0550806 41.73878659 0.0596557 46.85302734 0.06469727 C56.89210254 0.07542994 66.93115629 0.09250323 76.97021484 0.11352539 C76.97021484 0.44352539 76.97021484 0.77352539 76.97021484 1.11352539 C54.86021484 1.44352539 32.75021484 1.77352539 9.97021484 2.11352539 C10.30021484 3.43352539 10.63021484 4.75352539 10.97021484 6.11352539 C9.93380859 6.13930664 8.89740234 6.16508789 7.82958984 6.19165039 C6.45975683 6.2479449 5.0899668 6.30529194 3.72021484 6.36352539 C3.03830078 6.37770508 2.35638672 6.39188477 1.65380859 6.40649414 C-1.68292787 6.56847164 -3.72996943 6.89827307 -6.46728516 8.86352539 C-8.20936081 11.37211433 -8.60197017 12.84067068 -8.77978516 15.86352539 C-8.83650391 16.66274414 -8.89322266 17.46196289 -8.95166016 18.28540039 C-8.97744141 18.88868164 -9.00322266 19.49196289 -9.02978516 20.11352539 C-10.34978516 20.11352539 -11.66978516 20.11352539 -13.02978516 20.11352539 C-13.35978516 25.39352539 -13.68978516 30.67352539 -14.02978516 36.11352539 C-14.35978516 36.11352539 -14.68978516 36.11352539 -15.02978516 36.11352539 C-15.15404614 32.09358692 -15.24442927 28.0744026 -15.30444336 24.05297852 C-15.32947795 22.68722036 -15.36351733 21.32159472 -15.40698242 19.95629883 C-15.80454546 7.14073728 -15.80454546 7.14073728 -12.63525391 3.24633789 C-8.3987582 -0.22161812 -5.28686851 -0.02413308 0 0 Z " fill="#FFC1BA" transform="translate(213.02978515625,198.886474609375)"/>
<path d="M0 0 C0 0.66 0 1.32 0 2 C-2 3.33333333 -4 4.66666667 -6 6 C-10.15470798 10.72777115 -10.15079092 15.16946839 -10.15821838 21.21928406 C-10.16315636 22.06714267 -10.16809434 22.91500128 -10.17318195 23.78855258 C-10.18858439 26.63987614 -10.19692501 29.49117713 -10.20532227 32.3425293 C-10.21489863 34.38235677 -10.22490857 36.42218224 -10.23532104 38.46200562 C-10.26240235 44.00915898 -10.28339445 49.55632089 -10.30332303 55.10350394 C-10.3251627 60.89712827 -10.35256125 66.69072619 -10.37937927 72.48432922 C-10.4293335 83.45962315 -10.4742622 94.43493171 -10.51740164 105.4102543 C-10.56675069 117.90345308 -10.62167746 130.39662536 -10.67708123 142.88979852 C-10.79094318 168.59317431 -10.89777304 194.2965755 -11 220 C-11.33 220 -11.66 220 -12 220 C-12.24742755 193.0185365 -12.46599151 166.03697273 -12.65021229 139.05500031 C-12.73642226 126.52674805 -12.83206994 113.99870071 -12.94995117 101.47070312 C-13.05267458 90.55107943 -13.13767437 79.63148607 -13.20140952 68.71156263 C-13.23577443 62.92969796 -13.27900115 57.14820646 -13.34345436 51.36659241 C-13.40385743 45.92316421 -13.44053504 40.48008828 -13.45913696 35.03636169 C-13.47011904 33.04008259 -13.48971822 31.04382911 -13.51865196 29.04772949 C-13.55692609 26.31753637 -13.56391006 23.58894282 -13.56330872 20.85852051 C-13.58176387 20.07250599 -13.60021903 19.28649148 -13.61923343 18.47665834 C-13.56777336 12.58886814 -11.74163973 8.54517204 -8 4 C-5.58868716 1.89770862 -3.32142645 0 0 0 Z " fill="#FF7676" transform="translate(144,132)"/>
<path d="M0 0 C0.33 0 0.66 0 1 0 C1.01401855 1.27061279 1.01401855 1.27061279 1.02832031 2.56689453 C1.07252612 5.73194352 1.13422527 8.89604812 1.20751953 12.06054688 C1.23561623 13.42598164 1.25688677 14.79157564 1.27099609 16.15722656 C1.29257982 18.12854038 1.3413546 20.09949631 1.390625 22.0703125 C1.41157227 23.25383301 1.43251953 24.43735352 1.45410156 25.65673828 C2.10578669 29.64787253 3.50504397 31.85204457 6 35 C8.10039331 36.38868516 8.10039331 36.38868516 10 37 C10 37.66 10 38.32 10 39 C4.06 39 -1.88 39 -8 39 C-8 38.34 -8 37.68 -8 37 C-7.21625 36.79375 -6.4325 36.5875 -5.625 36.375 C-2.76854593 35.23063453 -2.76854593 35.23063453 -1.86181641 32.34716797 C-0.95397318 28.8212386 -0.68248885 25.70708015 -0.5859375 22.0703125 C-0.54726563 20.78125 -0.50859375 19.4921875 -0.46875 18.1640625 C-0.43730242 16.81771293 -0.40605489 15.47135868 -0.375 14.125 C-0.33676959 12.75518486 -0.29771499 11.38539245 -0.2578125 10.015625 C-0.16377285 6.67721737 -0.07811943 3.33881186 0 0 Z " fill="#FFEDED" transform="translate(300,207)"/>
<path d="M0 0 C0.75732422 0.00644531 1.51464844 0.01289063 2.29492188 0.01953125 C3.08060547 0.03628906 3.86628906 0.05304688 4.67578125 0.0703125 C5.47306641 0.07933594 6.27035156 0.08835938 7.09179688 0.09765625 C9.05742025 0.12119665 11.022889 0.15706703 12.98828125 0.1953125 C12.98828125 1.1853125 12.98828125 2.1753125 12.98828125 3.1953125 C11.951875 3.22109375 10.91546875 3.246875 9.84765625 3.2734375 C8.47782324 3.32973201 7.1080332 3.38707905 5.73828125 3.4453125 C4.71541016 3.46658203 4.71541016 3.46658203 3.671875 3.48828125 C0.33513853 3.65025875 -1.71190302 3.98006018 -4.44921875 5.9453125 C-6.1912944 8.45390143 -6.58390377 9.92245779 -6.76171875 12.9453125 C-6.8184375 13.74453125 -6.87515625 14.54375 -6.93359375 15.3671875 C-6.959375 15.97046875 -6.98515625 16.57375 -7.01171875 17.1953125 C-8.33171875 17.1953125 -9.65171875 17.1953125 -11.01171875 17.1953125 C-11.39606818 12.39094468 -11.49140587 9.10506393 -9.19921875 4.7578125 C-6.30710285 1.3699053 -4.4035762 -0.06621919 0 0 Z " fill="#FF6161" transform="translate(211.01171875,201.8046875)"/>
<path d="M0 0 C0.33 0 0.66 0 1 0 C2.01817263 4.54783773 1.84836972 7.64679341 0.625 12.125 C-0.79066976 17.66071314 -1.38138204 22.83406693 -1.49609375 28.5390625 C-2 31 -2 31 -3.78515625 32.8359375 C-6 34 -6 34 -10 34 C-10.703125 32.35546875 -10.703125 32.35546875 -11 30 C-9.671875 27.30078125 -9.671875 27.30078125 -7.75 24.3125 C-2.83017235 16.23692633 -0.74482878 9.38484266 0 0 Z " fill="#FFEEEE" transform="translate(233,309)"/>
<path d="M0 0 C0.99 0 1.98 0 3 0 C3.75414949 7.69232482 1.34312406 14.10100761 -2 21 C-2.66 21.33 -3.32 21.66 -4 22 C-4.4284736 14.57312433 -3.36274668 6.72549337 0 0 Z " fill="#FFF1F1" transform="translate(226,309)"/>
<path d="M0 0 C0.66 0 1.32 0 2 0 C2.57279445 8.87831403 0.60700402 15.97919554 -5 23 C-4.75952547 14.54732018 -4.23196371 7.4403827 0 0 Z " fill="#FFF2F2" transform="translate(242,309)"/>
<path d="M0 0 C1.65 0 3.3 0 5 0 C5.62440191 8.11722488 5.62440191 8.11722488 3.1875 11.5625 C1 13 1 13 -2 13 C-1.85915204 11.20793453 -1.71216299 9.41635083 -1.5625 7.625 C-1.48128906 6.62726563 -1.40007812 5.62953125 -1.31640625 4.6015625 C-1 2 -1 2 0 0 Z " fill="#FFF3F3" transform="translate(322,330)"/>
<path d="M0 0 C0.99 0.33 1.98 0.66 3 1 C2.69078116 2.45903258 2.37751201 3.91720722 2.0625 5.375 C1.88847656 6.18710937 1.71445312 6.99921875 1.53515625 7.8359375 C1 10 1 10 0 12 C-1.32 12 -2.64 12 -4 12 C-4.33292585 7.75519536 -4.43885872 5.64457375 -2 2.0625 C-1.34 1.381875 -0.68 0.70125 0 0 Z " fill="#FFF5F5" transform="translate(313,331)"/>
<path d="M0 0 C-0.11398665 1.62580966 -0.24155659 3.25067157 -0.375 4.875 C-0.44460937 5.77992188 -0.51421875 6.68484375 -0.5859375 7.6171875 C-1 10 -1 10 -3 12 C-3.99 12 -4.98 12 -6 12 C-6.48979592 4.65306122 -6.48979592 4.65306122 -4.125 1.5 C-2 0 -2 0 0 0 Z " fill="#FFF9F9" transform="translate(205,331)"/>
<path d="M0 0 C0 0.66 0 1.32 0 2 C-2 3.33333333 -4 4.66666667 -6 6 C-8.16347905 8.47254749 -9.61932925 11.02624763 -11 14 C-11.75 12.375 -11.75 12.375 -12 10 C-9.61407353 5.41902118 -5.68336412 0 0 0 Z " fill="#FF6B6B" transform="translate(144,132)"/>
<path d="M0 0 C0.66 0 1.32 0 2 0 C2.50423019 5.29441695 1.18923033 7.81413519 -2 12 C-3.15957207 8.52128379 -2.77456651 7.65780355 -1.5625 4.3125 C-1.13130859 3.10013672 -1.13130859 3.10013672 -0.69140625 1.86328125 C-0.46324219 1.24839844 -0.23507812 0.63351562 0 0 Z " fill="#FFF1F1" transform="translate(337,312)"/>
<path d="M0 0 C0.66 0.99 1.32 1.98 2 3 C4.75308621 6.47758258 7.29449937 9.52966625 11 12 C10.01 12.33 9.02 12.66 8 13 C4.33335287 10.82777698 1.53064142 7.9728426 -0.5 4.25 C-1 2 -1 2 0 0 Z " fill="#FF7171" transform="translate(133,355)"/>
<path d="M0 0 C4.43658969 2.21829484 6.67773363 4.61349686 9 9 C9.25 12.375 9.25 12.375 9 15 C7 12 7 12 5.625 9.0625 C4.04533446 6.08543802 2.39705171 4.31439476 0 2 C0 1.34 0 0.68 0 0 Z " fill="#FF6A6A" transform="translate(359,133)"/>
<path d="M0 0 C1.32 0 2.64 0 4 0 C3.67 1.65 3.34 3.3 3 5 C1.35 5.33 -0.3 5.66 -2 6 C-1.125 1.125 -1.125 1.125 0 0 Z " fill="#FFECEC" transform="translate(292,331)"/>
</svg>
